<mxfile host="app.diagrams.net" modified="2023-11-01T14:25:41.931Z" agent="Mozilla/5.0 (Windows NT 10.0; Win64; x64) AppleWebKit/537.36 (KHTML, like Gecko) Chrome/118.0.0.0 Safari/537.36" etag="qVBQElpwy3Tw7Oyv7oQK" version="22.0.8" type="device">
  <diagram name="第 1 页" id="nVfcSFQitMutYMM__c6A">
    <mxGraphModel dx="2261" dy="1949" grid="1" gridSize="10" guides="1" tooltips="1" connect="1" arrows="1" fold="1" page="1" pageScale="1" pageWidth="827" pageHeight="1169" math="0" shadow="0">
      <root>
        <mxCell id="0" />
        <mxCell id="1" parent="0" />
        <mxCell id="IPesjOvO2dqc070sq4V8-59" value="" style="rounded=1;whiteSpace=wrap;html=1;" vertex="1" parent="1">
          <mxGeometry x="-70" y="-10" width="1910" height="1140" as="geometry" />
        </mxCell>
        <mxCell id="IPesjOvO2dqc070sq4V8-56" value="" style="rounded=1;whiteSpace=wrap;html=1;" vertex="1" parent="1">
          <mxGeometry x="280" y="80" width="1460" height="920" as="geometry" />
        </mxCell>
        <mxCell id="IPesjOvO2dqc070sq4V8-9" style="edgeStyle=orthogonalEdgeStyle;rounded=0;orthogonalLoop=1;jettySize=auto;html=1;exitX=1;exitY=0.5;exitDx=0;exitDy=0;entryX=0;entryY=0.5;entryDx=0;entryDy=0;" edge="1" parent="1" source="IPesjOvO2dqc070sq4V8-2" target="IPesjOvO2dqc070sq4V8-4">
          <mxGeometry relative="1" as="geometry" />
        </mxCell>
        <mxCell id="IPesjOvO2dqc070sq4V8-10" value="&lt;font style=&quot;font-size: 20px;&quot;&gt;輸出電壓&lt;/font&gt;" style="edgeLabel;html=1;align=center;verticalAlign=middle;resizable=0;points=[];" vertex="1" connectable="0" parent="IPesjOvO2dqc070sq4V8-9">
          <mxGeometry x="0.0424" y="2" relative="1" as="geometry">
            <mxPoint x="-8" y="2" as="offset" />
          </mxGeometry>
        </mxCell>
        <mxCell id="IPesjOvO2dqc070sq4V8-2" value="&lt;font style=&quot;font-size: 25px;&quot;&gt;&lt;b&gt;心電訊號擷取器(第一導聯)&lt;/b&gt;&lt;/font&gt;" style="rounded=1;whiteSpace=wrap;html=1;" vertex="1" parent="1">
          <mxGeometry x="380" y="170" width="200" height="110" as="geometry" />
        </mxCell>
        <mxCell id="IPesjOvO2dqc070sq4V8-16" style="edgeStyle=orthogonalEdgeStyle;rounded=0;orthogonalLoop=1;jettySize=auto;html=1;exitX=0.5;exitY=1;exitDx=0;exitDy=0;entryX=0.5;entryY=0;entryDx=0;entryDy=0;" edge="1" parent="1" source="IPesjOvO2dqc070sq4V8-4" target="IPesjOvO2dqc070sq4V8-14">
          <mxGeometry relative="1" as="geometry" />
        </mxCell>
        <mxCell id="IPesjOvO2dqc070sq4V8-17" value="&lt;font style=&quot;font-size: 20px;&quot;&gt;輸出二進制數值&lt;/font&gt;" style="edgeLabel;html=1;align=center;verticalAlign=middle;resizable=0;points=[];" vertex="1" connectable="0" parent="IPesjOvO2dqc070sq4V8-16">
          <mxGeometry x="0.0364" relative="1" as="geometry">
            <mxPoint as="offset" />
          </mxGeometry>
        </mxCell>
        <mxCell id="IPesjOvO2dqc070sq4V8-4" value="&lt;font style=&quot;font-size: 25px;&quot;&gt;&lt;b&gt;ADC&lt;/b&gt;&lt;/font&gt;" style="rounded=1;whiteSpace=wrap;html=1;" vertex="1" parent="1">
          <mxGeometry x="710" y="170" width="200" height="110" as="geometry" />
        </mxCell>
        <mxCell id="IPesjOvO2dqc070sq4V8-8" value="&lt;font style=&quot;font-size: 25px;&quot;&gt;&lt;b&gt;電源&lt;br&gt;&lt;/b&gt;&lt;/font&gt;" style="rounded=1;whiteSpace=wrap;html=1;" vertex="1" parent="1">
          <mxGeometry x="40" y="110" width="200" height="110" as="geometry" />
        </mxCell>
        <mxCell id="IPesjOvO2dqc070sq4V8-19" style="edgeStyle=orthogonalEdgeStyle;rounded=0;orthogonalLoop=1;jettySize=auto;html=1;exitX=0.5;exitY=1;exitDx=0;exitDy=0;entryX=0.5;entryY=0;entryDx=0;entryDy=0;" edge="1" parent="1" source="IPesjOvO2dqc070sq4V8-14" target="IPesjOvO2dqc070sq4V8-18">
          <mxGeometry relative="1" as="geometry" />
        </mxCell>
        <mxCell id="IPesjOvO2dqc070sq4V8-21" value="&lt;font style=&quot;font-size: 20px;&quot;&gt;數據紀錄&lt;/font&gt;" style="edgeLabel;html=1;align=center;verticalAlign=middle;resizable=0;points=[];" vertex="1" connectable="0" parent="IPesjOvO2dqc070sq4V8-19">
          <mxGeometry x="-0.0667" y="2" relative="1" as="geometry">
            <mxPoint as="offset" />
          </mxGeometry>
        </mxCell>
        <mxCell id="IPesjOvO2dqc070sq4V8-14" value="&lt;font style=&quot;font-size: 25px;&quot;&gt;&lt;b&gt;取樣器&lt;/b&gt;&lt;/font&gt;" style="rounded=1;whiteSpace=wrap;html=1;" vertex="1" parent="1">
          <mxGeometry x="710" y="380" width="200" height="110" as="geometry" />
        </mxCell>
        <mxCell id="IPesjOvO2dqc070sq4V8-20" style="edgeStyle=orthogonalEdgeStyle;rounded=0;orthogonalLoop=1;jettySize=auto;html=1;exitX=1;exitY=0.5;exitDx=0;exitDy=0;entryX=0;entryY=0.5;entryDx=0;entryDy=0;" edge="1" parent="1" source="IPesjOvO2dqc070sq4V8-15" target="IPesjOvO2dqc070sq4V8-18">
          <mxGeometry relative="1" as="geometry" />
        </mxCell>
        <mxCell id="IPesjOvO2dqc070sq4V8-23" value="&lt;font style=&quot;font-size: 20px;&quot;&gt;數據對應的時間軸紀錄&lt;/font&gt;" style="edgeLabel;html=1;align=center;verticalAlign=middle;resizable=0;points=[];" vertex="1" connectable="0" parent="IPesjOvO2dqc070sq4V8-20">
          <mxGeometry x="-0.0923" y="1" relative="1" as="geometry">
            <mxPoint x="5" y="71" as="offset" />
          </mxGeometry>
        </mxCell>
        <mxCell id="IPesjOvO2dqc070sq4V8-15" value="&lt;font style=&quot;font-size: 25px;&quot;&gt;&lt;b&gt;目前時間軸&lt;br&gt;計數器&lt;br&gt;&lt;/b&gt;&lt;/font&gt;" style="rounded=1;whiteSpace=wrap;html=1;" vertex="1" parent="1">
          <mxGeometry x="380" y="585" width="200" height="110" as="geometry" />
        </mxCell>
        <mxCell id="IPesjOvO2dqc070sq4V8-26" style="edgeStyle=orthogonalEdgeStyle;rounded=0;orthogonalLoop=1;jettySize=auto;html=1;exitX=1;exitY=0.5;exitDx=0;exitDy=0;entryX=0;entryY=0.5;entryDx=0;entryDy=0;" edge="1" parent="1" source="IPesjOvO2dqc070sq4V8-18" target="IPesjOvO2dqc070sq4V8-25">
          <mxGeometry relative="1" as="geometry" />
        </mxCell>
        <mxCell id="IPesjOvO2dqc070sq4V8-27" value="&lt;font style=&quot;font-size: 20px;&quot;&gt;Read&lt;/font&gt;" style="edgeLabel;html=1;align=center;verticalAlign=middle;resizable=0;points=[];" vertex="1" connectable="0" parent="IPesjOvO2dqc070sq4V8-26">
          <mxGeometry x="-0.0353" y="-1" relative="1" as="geometry">
            <mxPoint as="offset" />
          </mxGeometry>
        </mxCell>
        <mxCell id="IPesjOvO2dqc070sq4V8-34" style="edgeStyle=orthogonalEdgeStyle;rounded=0;orthogonalLoop=1;jettySize=auto;html=1;exitX=0.5;exitY=1;exitDx=0;exitDy=0;entryX=0.5;entryY=0;entryDx=0;entryDy=0;" edge="1" parent="1" source="IPesjOvO2dqc070sq4V8-18" target="IPesjOvO2dqc070sq4V8-33">
          <mxGeometry relative="1" as="geometry" />
        </mxCell>
        <mxCell id="IPesjOvO2dqc070sq4V8-18" value="&lt;font style=&quot;font-size: 25px;&quot;&gt;&lt;b&gt;暫存器(32B)&lt;/b&gt;&lt;/font&gt;" style="rounded=1;whiteSpace=wrap;html=1;" vertex="1" parent="1">
          <mxGeometry x="710" y="585" width="200" height="110" as="geometry" />
        </mxCell>
        <mxCell id="IPesjOvO2dqc070sq4V8-24" value="&lt;font style=&quot;font-size: 25px;&quot;&gt;&lt;b&gt;顯示器&lt;/b&gt;&lt;/font&gt;" style="rounded=1;whiteSpace=wrap;html=1;" vertex="1" parent="1">
          <mxGeometry x="1080" y="180" width="200" height="110" as="geometry" />
        </mxCell>
        <mxCell id="IPesjOvO2dqc070sq4V8-29" style="edgeStyle=orthogonalEdgeStyle;rounded=0;orthogonalLoop=1;jettySize=auto;html=1;exitX=0.5;exitY=0;exitDx=0;exitDy=0;entryX=0.5;entryY=1;entryDx=0;entryDy=0;" edge="1" parent="1" source="IPesjOvO2dqc070sq4V8-25" target="IPesjOvO2dqc070sq4V8-28">
          <mxGeometry relative="1" as="geometry" />
        </mxCell>
        <mxCell id="IPesjOvO2dqc070sq4V8-30" value="&lt;font style=&quot;font-size: 20px;&quot;&gt;提供數據&lt;/font&gt;" style="edgeLabel;html=1;align=center;verticalAlign=middle;resizable=0;points=[];" vertex="1" connectable="0" parent="IPesjOvO2dqc070sq4V8-29">
          <mxGeometry x="-0.0316" y="-3" relative="1" as="geometry">
            <mxPoint as="offset" />
          </mxGeometry>
        </mxCell>
        <mxCell id="IPesjOvO2dqc070sq4V8-25" value="&lt;b style=&quot;border-color: var(--border-color); font-size: 25px;&quot;&gt;數據讀取器&lt;/b&gt;" style="rounded=1;whiteSpace=wrap;html=1;" vertex="1" parent="1">
          <mxGeometry x="1080" y="585" width="200" height="110" as="geometry" />
        </mxCell>
        <mxCell id="IPesjOvO2dqc070sq4V8-31" style="edgeStyle=orthogonalEdgeStyle;rounded=0;orthogonalLoop=1;jettySize=auto;html=1;exitX=0.5;exitY=0;exitDx=0;exitDy=0;entryX=0.5;entryY=1;entryDx=0;entryDy=0;" edge="1" parent="1" source="IPesjOvO2dqc070sq4V8-28" target="IPesjOvO2dqc070sq4V8-24">
          <mxGeometry relative="1" as="geometry" />
        </mxCell>
        <mxCell id="IPesjOvO2dqc070sq4V8-32" value="&lt;font style=&quot;font-size: 20px;&quot;&gt;使顯示器根據解碼內容顯示心電圖&lt;/font&gt;" style="edgeLabel;html=1;align=center;verticalAlign=middle;resizable=0;points=[];" vertex="1" connectable="0" parent="IPesjOvO2dqc070sq4V8-31">
          <mxGeometry x="-0.0667" y="-2" relative="1" as="geometry">
            <mxPoint as="offset" />
          </mxGeometry>
        </mxCell>
        <mxCell id="IPesjOvO2dqc070sq4V8-28" value="&lt;b style=&quot;border-color: var(--border-color); font-size: 25px;&quot;&gt;解碼器&lt;/b&gt;" style="rounded=1;whiteSpace=wrap;html=1;" vertex="1" parent="1">
          <mxGeometry x="1080" y="380" width="200" height="110" as="geometry" />
        </mxCell>
        <mxCell id="IPesjOvO2dqc070sq4V8-37" style="edgeStyle=orthogonalEdgeStyle;rounded=0;orthogonalLoop=1;jettySize=auto;html=1;exitX=1;exitY=0.5;exitDx=0;exitDy=0;" edge="1" parent="1" source="IPesjOvO2dqc070sq4V8-33" target="IPesjOvO2dqc070sq4V8-36">
          <mxGeometry relative="1" as="geometry" />
        </mxCell>
        <mxCell id="IPesjOvO2dqc070sq4V8-38" value="&lt;font style=&quot;font-size: 20px;&quot;&gt;傳輸數據&lt;/font&gt;" style="edgeLabel;html=1;align=center;verticalAlign=middle;resizable=0;points=[];" vertex="1" connectable="0" parent="IPesjOvO2dqc070sq4V8-37">
          <mxGeometry x="0.0303" y="-1" relative="1" as="geometry">
            <mxPoint as="offset" />
          </mxGeometry>
        </mxCell>
        <mxCell id="IPesjOvO2dqc070sq4V8-51" style="edgeStyle=orthogonalEdgeStyle;rounded=0;orthogonalLoop=1;jettySize=auto;html=1;exitX=0;exitY=0.5;exitDx=0;exitDy=0;entryX=1;entryY=0.5;entryDx=0;entryDy=0;" edge="1" parent="1" source="IPesjOvO2dqc070sq4V8-33" target="IPesjOvO2dqc070sq4V8-50">
          <mxGeometry relative="1" as="geometry" />
        </mxCell>
        <mxCell id="IPesjOvO2dqc070sq4V8-52" value="&lt;font style=&quot;font-size: 20px;&quot;&gt;提供&lt;/font&gt;" style="edgeLabel;html=1;align=center;verticalAlign=middle;resizable=0;points=[];" vertex="1" connectable="0" parent="IPesjOvO2dqc070sq4V8-51">
          <mxGeometry x="0.0308" y="2" relative="1" as="geometry">
            <mxPoint as="offset" />
          </mxGeometry>
        </mxCell>
        <mxCell id="IPesjOvO2dqc070sq4V8-33" value="&lt;font style=&quot;font-size: 25px;&quot;&gt;&lt;b&gt;ESP32&lt;br&gt;(僅Wi-Fi傳輸數據用)&lt;/b&gt;&lt;/font&gt;" style="rounded=1;whiteSpace=wrap;html=1;" vertex="1" parent="1">
          <mxGeometry x="690" y="790" width="240" height="130" as="geometry" />
        </mxCell>
        <mxCell id="IPesjOvO2dqc070sq4V8-45" style="edgeStyle=orthogonalEdgeStyle;rounded=0;orthogonalLoop=1;jettySize=auto;html=1;exitX=1;exitY=0.5;exitDx=0;exitDy=0;entryX=1;entryY=1;entryDx=0;entryDy=0;" edge="1" parent="1" source="IPesjOvO2dqc070sq4V8-36" target="IPesjOvO2dqc070sq4V8-40">
          <mxGeometry relative="1" as="geometry" />
        </mxCell>
        <mxCell id="IPesjOvO2dqc070sq4V8-46" value="&lt;span style=&quot;font-size: 20px;&quot;&gt;傳回使用者介面(網頁)&lt;/span&gt;" style="edgeLabel;html=1;align=center;verticalAlign=middle;resizable=0;points=[];" vertex="1" connectable="0" parent="IPesjOvO2dqc070sq4V8-45">
          <mxGeometry x="0.2299" y="2" relative="1" as="geometry">
            <mxPoint as="offset" />
          </mxGeometry>
        </mxCell>
        <mxCell id="IPesjOvO2dqc070sq4V8-36" value="&lt;font style=&quot;font-size: 25px;&quot;&gt;&lt;b&gt;本地端Server&lt;/b&gt;&lt;/font&gt;" style="rounded=1;whiteSpace=wrap;html=1;" vertex="1" parent="1">
          <mxGeometry x="1260" y="800" width="200" height="110" as="geometry" />
        </mxCell>
        <mxCell id="IPesjOvO2dqc070sq4V8-40" value="&lt;font style=&quot;font-size: 20px;&quot;&gt;使用者&lt;/font&gt;" style="ellipse;whiteSpace=wrap;html=1;" vertex="1" parent="1">
          <mxGeometry x="1450" y="370" width="200" height="140" as="geometry" />
        </mxCell>
        <mxCell id="IPesjOvO2dqc070sq4V8-41" style="edgeStyle=orthogonalEdgeStyle;rounded=0;orthogonalLoop=1;jettySize=auto;html=1;exitX=0;exitY=1;exitDx=0;exitDy=0;entryX=0.465;entryY=-0.009;entryDx=0;entryDy=0;entryPerimeter=0;" edge="1" parent="1" source="IPesjOvO2dqc070sq4V8-40" target="IPesjOvO2dqc070sq4V8-36">
          <mxGeometry relative="1" as="geometry" />
        </mxCell>
        <mxCell id="IPesjOvO2dqc070sq4V8-42" value="&lt;font style=&quot;font-size: 20px;&quot;&gt;發送請求&lt;/font&gt;" style="edgeLabel;html=1;align=center;verticalAlign=middle;resizable=0;points=[];" vertex="1" connectable="0" parent="IPesjOvO2dqc070sq4V8-41">
          <mxGeometry x="-0.1349" y="1" relative="1" as="geometry">
            <mxPoint x="-34" as="offset" />
          </mxGeometry>
        </mxCell>
        <mxCell id="IPesjOvO2dqc070sq4V8-48" style="edgeStyle=orthogonalEdgeStyle;rounded=0;orthogonalLoop=1;jettySize=auto;html=1;exitX=0.5;exitY=0;exitDx=0;exitDy=0;entryX=0.5;entryY=1;entryDx=0;entryDy=0;" edge="1" parent="1" source="IPesjOvO2dqc070sq4V8-47" target="IPesjOvO2dqc070sq4V8-2">
          <mxGeometry relative="1" as="geometry" />
        </mxCell>
        <mxCell id="IPesjOvO2dqc070sq4V8-49" value="&lt;font style=&quot;font-size: 20px;&quot;&gt;輸入電壓&lt;/font&gt;" style="edgeLabel;html=1;align=center;verticalAlign=middle;resizable=0;points=[];" vertex="1" connectable="0" parent="IPesjOvO2dqc070sq4V8-48">
          <mxGeometry x="-0.0095" y="-2" relative="1" as="geometry">
            <mxPoint as="offset" />
          </mxGeometry>
        </mxCell>
        <mxCell id="IPesjOvO2dqc070sq4V8-47" value="&lt;span style=&quot;font-size: 25px;&quot;&gt;&lt;b&gt;人體訊號&lt;/b&gt;&lt;/span&gt;" style="rounded=1;whiteSpace=wrap;html=1;" vertex="1" parent="1">
          <mxGeometry x="380" y="385" width="200" height="110" as="geometry" />
        </mxCell>
        <mxCell id="IPesjOvO2dqc070sq4V8-50" value="&lt;span style=&quot;font-size: 25px;&quot;&gt;&lt;b&gt;Wi-Fi選單&lt;br&gt;(使用SSD1306)&lt;br&gt;&lt;/b&gt;&lt;/span&gt;" style="rounded=1;whiteSpace=wrap;html=1;" vertex="1" parent="1">
          <mxGeometry x="360" y="800" width="200" height="110" as="geometry" />
        </mxCell>
        <mxCell id="IPesjOvO2dqc070sq4V8-57" style="edgeStyle=orthogonalEdgeStyle;rounded=0;orthogonalLoop=1;jettySize=auto;html=1;exitX=0.5;exitY=1;exitDx=0;exitDy=0;entryX=0.001;entryY=0.32;entryDx=0;entryDy=0;entryPerimeter=0;" edge="1" parent="1" source="IPesjOvO2dqc070sq4V8-8" target="IPesjOvO2dqc070sq4V8-56">
          <mxGeometry relative="1" as="geometry" />
        </mxCell>
        <mxCell id="IPesjOvO2dqc070sq4V8-58" value="&lt;font style=&quot;font-size: 20px;&quot;&gt;5 伏特供應&lt;/font&gt;" style="edgeLabel;html=1;align=center;verticalAlign=middle;resizable=0;points=[];" vertex="1" connectable="0" parent="IPesjOvO2dqc070sq4V8-57">
          <mxGeometry x="-0.3774" y="8" relative="1" as="geometry">
            <mxPoint as="offset" />
          </mxGeometry>
        </mxCell>
      </root>
    </mxGraphModel>
  </diagram>
</mxfile>
